<svg width="109" height="26" viewBox="0 0 109 26" fill="none" xmlns="http://www.w3.org/2000/svg">
<g clip-path="url(#clip0_69_818)">
<path fill-rule="evenodd" clip-rule="evenodd" d="M42.3634 18.7941L40.8777 25.7016H37.4604L43.1063 0.66797H47.1543L52.4658 25.7016H49.0115L47.5629 18.7941H42.3634ZM47.1543 16.0083L46.0028 10.0276C45.6686 8.31896 45.3343 6.09157 45.0749 4.30805H44.9257C44.6663 6.1281 44.2936 8.4304 43.9606 10.0276L42.772 16.0083H47.1543ZM65.5094 0V21.0593C65.5094 22.4342 65.5837 24.44 65.6574 25.7022H62.6493L62.4265 23.5114H62.3151C61.7208 24.7736 60.3464 26 58.527 26C55.1841 26 53.1412 22.3593 53.1412 16.7518C53.1412 10.3631 55.8521 7.35446 58.7128 7.35446C60.1607 7.35446 61.3122 8.02367 61.9436 9.39737H62.0179V0H65.5094ZM62.0173 14.5226C62.0173 14.1889 62.0173 13.7803 61.9801 13.4077C61.7944 11.7739 60.8658 10.3625 59.6036 10.3625C57.4115 10.3625 56.6692 13.4077 56.6692 16.7512C56.6692 20.4656 57.635 23.065 59.4921 23.065C60.2722 23.065 61.3116 22.6564 61.9059 20.5027C61.9801 20.2056 62.0173 19.7592 62.0173 19.3519V14.5226ZM73.8258 25.9994C70.2235 25.9994 67.6229 22.9165 67.6229 16.7147C67.6229 10.1396 70.7052 7.35385 74.0109 7.35385C77.5767 7.35385 80.139 10.5482 80.139 16.6398C80.139 23.8085 76.6104 25.9994 73.8624 25.9994H73.8258ZM73.9367 23.2514C76.0904 23.2514 76.5738 19.4256 76.5738 16.6775C76.5738 13.9654 76.091 10.1031 73.863 10.1031C71.5595 10.1031 71.1144 13.9654 71.1144 16.6775C71.1144 19.6856 71.6344 23.2514 73.9001 23.2514H73.9367ZM82.2438 0H85.7347V9.6939H85.809C86.7376 8.06019 88.0004 7.35385 89.5976 7.35385C92.6799 7.35385 94.612 10.8454 94.612 16.3798C94.612 22.8422 91.9748 25.9994 89.0033 25.9994C87.2204 25.9994 86.2175 25.033 85.4369 23.4358H85.2896L85.1032 25.7016H82.0952C82.1695 24.4765 82.2438 22.4336 82.2438 21.0586V0ZM85.7347 19.3129C85.7347 19.7227 85.7718 20.1313 85.8833 20.4278C86.4398 22.6199 87.5176 23.065 88.2227 23.065C90.3027 23.065 91.0827 20.317 91.0827 16.6026C91.0827 13.1483 90.2662 10.3625 88.1855 10.3625C87.0341 10.3625 86.1055 11.7368 85.8455 13.0368C85.7712 13.4083 85.7341 13.8918 85.7341 14.2626V19.3129H85.7347ZM99.7638 17.382C99.8009 22.025 101.806 23.1758 103.923 23.1758C105.186 23.1758 106.263 22.8793 107.043 22.5073L107.563 25.033C106.486 25.5902 104.852 25.888 103.255 25.888C98.7238 25.888 96.3466 22.4707 96.3466 16.8992C96.3466 10.9933 99.0575 7.35323 102.809 7.35323C106.56 7.35323 108.306 10.9562 108.306 15.4883C108.306 16.3792 108.268 16.9369 108.232 17.4192L99.7638 17.382ZM105 14.894C105.038 11.6997 103.923 9.99167 102.55 9.99167C100.729 9.99167 99.9118 12.6289 99.8009 14.894H105Z" fill="#242424"/>
<path fill-rule="evenodd" clip-rule="evenodd" d="M17.7838 0.735596H28.2131V25.7026L17.7838 0.735596ZM10.4368 0.735596H0V25.7026L10.4368 0.735596ZM14.1109 9.93678L20.7559 25.7026H16.4014L14.4142 20.6813H9.55027L14.1109 9.93678Z" fill="#FF0000"/>
<path fill-rule="evenodd" clip-rule="evenodd" d="M108.01 7.30832C108.114 7.30881 108.218 7.33001 108.314 7.37071C108.411 7.41141 108.498 7.4708 108.571 7.54545C108.645 7.6201 108.702 7.70853 108.741 7.80565C108.78 7.90276 108.8 8.00664 108.798 8.11127C108.798 8.56443 108.449 8.91792 108.006 8.91792C107.567 8.91792 107.21 8.56505 107.21 8.11127C107.209 8.00624 107.229 7.90213 107.269 7.8049C107.309 7.70766 107.367 7.61922 107.441 7.54464C107.515 7.47005 107.603 7.41079 107.7 7.37024C107.797 7.32969 107.901 7.30865 108.006 7.30832H108.01ZM108.006 7.43276C107.653 7.43276 107.363 7.73673 107.363 8.11127C107.363 8.49324 107.653 8.79287 108.01 8.79287C108.366 8.79659 108.652 8.49324 108.652 8.11498C108.652 7.73673 108.366 7.43276 108.01 7.43276H108.006ZM107.856 8.57929H107.714V7.68287C107.789 7.67234 107.861 7.6612 107.968 7.6612C108.103 7.6612 108.192 7.69029 108.246 7.7293C108.299 7.7683 108.328 7.82897 108.328 7.91502C108.328 8.03265 108.249 8.10446 108.153 8.13293V8.13974C108.231 8.15398 108.285 8.22579 108.303 8.35766C108.324 8.49695 108.345 8.55019 108.36 8.57929H108.21C108.189 8.55019 108.168 8.46847 108.15 8.35085C108.128 8.23632 108.071 8.1936 107.956 8.1936H107.857V8.57929H107.856ZM107.856 8.08279H107.96C108.077 8.08279 108.178 8.04007 108.178 7.92926C108.178 7.85063 108.121 7.77201 107.96 7.77201C107.914 7.77201 107.881 7.77573 107.856 7.77944V8.08279ZM29.5882 0.735596C29.6928 0.736077 29.7963 0.757276 29.8927 0.797975C29.9891 0.838673 30.0765 0.898062 30.1498 0.972713C30.2232 1.04736 30.281 1.1358 30.3199 1.23292C30.3589 1.33003 30.3782 1.4339 30.3769 1.53854C30.3769 1.9917 30.0271 2.34519 29.5845 2.34519C29.1455 2.34519 28.7883 1.99232 28.7883 1.53854C28.7878 1.4335 28.8079 1.32939 28.8476 1.23216C28.8874 1.13493 28.9459 1.04649 29.0198 0.971906C29.0938 0.897321 29.1817 0.838057 29.2786 0.797507C29.3755 0.756957 29.4794 0.73592 29.5845 0.735596H29.5882ZM29.5845 0.860028C29.231 0.860028 28.9419 1.16399 28.9419 1.53854C28.9419 1.92051 29.231 2.22014 29.5882 2.22014C29.9447 2.22385 30.2308 1.92051 30.2308 1.54225C30.2308 1.164 29.9447 0.860028 29.5882 0.860028H29.5845ZM29.4346 2.00656H29.2916V1.11013C29.3755 1.09621 29.4604 1.08917 29.5455 1.08909C29.681 1.08909 29.7702 1.11695 29.8234 1.15657C29.8773 1.19557 29.9057 1.25686 29.9057 1.34229C29.9057 1.45991 29.8271 1.53173 29.7306 1.56021V1.56701C29.8092 1.58125 29.863 1.65307 29.881 1.78555C29.902 1.92484 29.9237 1.97808 29.9379 2.00718H29.7881C29.7665 1.97808 29.7448 1.89636 29.7275 1.77874C29.7058 1.66421 29.6488 1.62149 29.5343 1.62149H29.4346V2.00656ZM29.4346 1.51006H29.538C29.6556 1.51006 29.7559 1.46734 29.7559 1.35653C29.7559 1.27791 29.699 1.19928 29.538 1.19928C29.4916 1.19928 29.4594 1.203 29.4346 1.20671V1.51006Z" fill="#242424"/>
</g>
<defs>
<clipPath id="clip0_69_818">
<rect width="108.799" height="26" fill="white"/>
</clipPath>
</defs>
</svg>
