<svg width="152" height="68" viewBox="0 0 152 68" fill="none" xmlns="http://www.w3.org/2000/svg">
<path d="M152 65.5C152 66.8807 150.881 68 149.5 68C148.119 68 147 66.8807 147 65.5C147 64.1193 148.119 63 149.5 63C150.881 63 152 64.1193 152 65.5Z" fill="#ED1CA6"/>
<path d="M131 65.5C131 66.8807 129.881 68 128.5 68C127.119 68 126 66.8807 126 65.5C126 64.1193 127.119 63 128.5 63C129.881 63 131 64.1193 131 65.5Z" fill="#ED1CA6"/>
<path d="M110 65.5C110 66.8807 108.881 68 107.5 68C106.119 68 105 66.8807 105 65.5C105 64.1193 106.119 63 107.5 63C108.881 63 110 64.1193 110 65.5Z" fill="#ED1CA6"/>
<path d="M89 65.5C89 66.8807 87.8807 68 86.5 68C85.1193 68 84 66.8807 84 65.5C84 64.1193 85.1193 63 86.5 63C87.8807 63 89 64.1193 89 65.5Z" fill="#ED1CA6"/>
<path d="M68 65.5C68 66.8807 66.8807 68 65.5 68C64.1193 68 63 66.8807 63 65.5C63 64.1193 64.1193 63 65.5 63C66.8807 63 68 64.1193 68 65.5Z" fill="#ED1CA6"/>
<path d="M47 65.5C47 66.8807 45.8807 68 44.5 68C43.1193 68 42 66.8807 42 65.5C42 64.1193 43.1193 63 44.5 63C45.8807 63 47 64.1193 47 65.5Z" fill="#ED1CA6"/>
<path d="M26 65.5C26 66.8807 24.8807 68 23.5 68C22.1193 68 21 66.8807 21 65.5C21 64.1193 22.1193 63 23.5 63C24.8807 63 26 64.1193 26 65.5Z" fill="#ED1CA6"/>
<path d="M5 65.5C5 66.8807 3.88071 68 2.5 68C1.11929 68 9.78513e-08 66.8807 2.18557e-07 65.5C3.39263e-07 64.1193 1.11929 63 2.5 63C3.88071 63 5 64.1193 5 65.5Z" fill="#ED1CA6"/>
<path d="M152 44.5C152 45.8807 150.881 47 149.5 47C148.119 47 147 45.8807 147 44.5C147 43.1193 148.119 42 149.5 42C150.881 42 152 43.1193 152 44.5Z" fill="#ED1CA6"/>
<path d="M131 44.5C131 45.8807 129.881 47 128.5 47C127.119 47 126 45.8807 126 44.5C126 43.1193 127.119 42 128.5 42C129.881 42 131 43.1193 131 44.5Z" fill="#ED1CA6"/>
<path d="M110 44.5C110 45.8807 108.881 47 107.5 47C106.119 47 105 45.8807 105 44.5C105 43.1193 106.119 42 107.5 42C108.881 42 110 43.1193 110 44.5Z" fill="#ED1CA6"/>
<path d="M89 44.5C89 45.8807 87.8807 47 86.5 47C85.1193 47 84 45.8807 84 44.5C84 43.1193 85.1193 42 86.5 42C87.8807 42 89 43.1193 89 44.5Z" fill="#ED1CA6"/>
<path d="M68 44.5C68 45.8807 66.8807 47 65.5 47C64.1193 47 63 45.8807 63 44.5C63 43.1193 64.1193 42 65.5 42C66.8807 42 68 43.1193 68 44.5Z" fill="#ED1CA6"/>
<path d="M47 44.5C47 45.8807 45.8807 47 44.5 47C43.1193 47 42 45.8807 42 44.5C42 43.1193 43.1193 42 44.5 42C45.8807 42 47 43.1193 47 44.5Z" fill="#ED1CA6"/>
<path d="M26 44.5C26 45.8807 24.8807 47 23.5 47C22.1193 47 21 45.8807 21 44.5C21 43.1193 22.1193 42 23.5 42C24.8807 42 26 43.1193 26 44.5Z" fill="#ED1CA6"/>
<path d="M5 44.5C5 45.8807 3.88071 47 2.5 47C1.11929 47 9.78513e-08 45.8807 2.18557e-07 44.5C3.39263e-07 43.1193 1.11929 42 2.5 42C3.88071 42 5 43.1193 5 44.5Z" fill="#ED1CA6"/>
<path d="M152 23.5C152 24.8807 150.881 26 149.5 26C148.119 26 147 24.8807 147 23.5C147 22.1193 148.119 21 149.5 21C150.881 21 152 22.1193 152 23.5Z" fill="#ED1CA6"/>
<path d="M131 23.5C131 24.8807 129.881 26 128.5 26C127.119 26 126 24.8807 126 23.5C126 22.1193 127.119 21 128.5 21C129.881 21 131 22.1193 131 23.5Z" fill="#ED1CA6"/>
<path d="M110 23.5C110 24.8807 108.881 26 107.5 26C106.119 26 105 24.8807 105 23.5C105 22.1193 106.119 21 107.5 21C108.881 21 110 22.1193 110 23.5Z" fill="#ED1CA6"/>
<path d="M89 23.5C89 24.8807 87.8807 26 86.5 26C85.1193 26 84 24.8807 84 23.5C84 22.1193 85.1193 21 86.5 21C87.8807 21 89 22.1193 89 23.5Z" fill="#ED1CA6"/>
<path d="M68 23.5C68 24.8807 66.8807 26 65.5 26C64.1193 26 63 24.8807 63 23.5C63 22.1193 64.1193 21 65.5 21C66.8807 21 68 22.1193 68 23.5Z" fill="#ED1CA6"/>
<path d="M47 23.5C47 24.8807 45.8807 26 44.5 26C43.1193 26 42 24.8807 42 23.5C42 22.1193 43.1193 21 44.5 21C45.8807 21 47 22.1193 47 23.5Z" fill="#ED1CA6"/>
<path d="M26 23.5C26 24.8807 24.8807 26 23.5 26C22.1193 26 21 24.8807 21 23.5C21 22.1193 22.1193 21 23.5 21C24.8807 21 26 22.1193 26 23.5Z" fill="#ED1CA6"/>
<path d="M5 23.5C5 24.8807 3.88071 26 2.5 26C1.11929 26 9.78513e-08 24.8807 2.18557e-07 23.5C3.39263e-07 22.1193 1.11929 21 2.5 21C3.88071 21 5 22.1193 5 23.5Z" fill="#ED1CA6"/>
<path d="M152 2.5C152 3.88071 150.881 5 149.5 5C148.119 5 147 3.88071 147 2.5C147 1.11929 148.119 -3.39263e-07 149.5 -2.18557e-07C150.881 -9.78513e-08 152 1.11929 152 2.5Z" fill="#ED1CA6"/>
<path d="M131 2.5C131 3.88071 129.881 5 128.5 5C127.119 5 126 3.88071 126 2.5C126 1.11929 127.119 -3.39263e-07 128.5 -2.18557e-07C129.881 -9.78513e-08 131 1.11929 131 2.5Z" fill="#ED1CA6"/>
<path d="M110 2.5C110 3.88071 108.881 5 107.5 5C106.119 5 105 3.88071 105 2.5C105 1.11929 106.119 -3.39263e-07 107.5 -2.18557e-07C108.881 -9.78513e-08 110 1.11929 110 2.5Z" fill="#ED1CA6"/>
<path d="M89 2.5C89 3.88071 87.8807 5 86.5 5C85.1193 5 84 3.88071 84 2.5C84 1.11929 85.1193 -3.39263e-07 86.5 -2.18557e-07C87.8807 -9.78513e-08 89 1.11929 89 2.5Z" fill="#ED1CA6"/>
<path d="M68 2.5C68 3.88071 66.8807 5 65.5 5C64.1193 5 63 3.88071 63 2.5C63 1.11929 64.1193 -3.39263e-07 65.5 -2.18557e-07C66.8807 -9.78513e-08 68 1.11929 68 2.5Z" fill="#ED1CA6"/>
<path d="M47 2.5C47 3.88071 45.8807 5 44.5 5C43.1193 5 42 3.88071 42 2.5C42 1.11929 43.1193 -3.39263e-07 44.5 -2.18557e-07C45.8807 -9.78513e-08 47 1.11929 47 2.5Z" fill="#ED1CA6"/>
<path d="M26 2.5C26 3.88071 24.8807 5 23.5 5C22.1193 5 21 3.88071 21 2.5C21 1.11929 22.1193 -3.39263e-07 23.5 -2.18557e-07C24.8807 -9.78513e-08 26 1.11929 26 2.5Z" fill="#ED1CA6"/>
<path d="M5 2.5C5 3.88071 3.88071 5 2.5 5C1.11929 5 9.78513e-08 3.88071 2.18557e-07 2.5C3.39263e-07 1.11929 1.11929 -3.39263e-07 2.5 -2.18557e-07C3.88071 -9.78513e-08 5 1.11929 5 2.5Z" fill="#ED1CA6"/>
</svg>
