<svg width="99" height="33" viewBox="0 0 99 33" fill="none" xmlns="http://www.w3.org/2000/svg">
<path d="M12.0744 0H12.9463C15.973 0.0657982 18.9503 1.28306 21.0888 3.43795C20.2992 4.24398 19.4932 5.01711 18.72 5.82314C17.5192 4.73747 16.0717 3.89854 14.4925 3.60245C12.1567 3.10896 9.63991 3.5531 7.68241 4.88551C5.54397 6.28372 4.09641 8.65246 3.78387 11.1857C3.43843 13.686 4.14576 16.3179 5.77427 18.259C7.33697 20.1507 9.72215 21.3351 12.1896 21.4173C14.4925 21.5489 16.8942 20.8416 18.572 19.2295C19.888 18.0945 20.4966 16.3673 20.694 14.6894C17.9634 14.6894 15.2327 14.7059 12.5021 14.6894V11.3008H24.0003C24.5925 14.9362 23.7372 19.0321 20.9736 21.6311C19.1313 23.4735 16.5816 24.5592 13.9826 24.773C11.4658 25.0198 8.86678 24.5427 6.62964 23.3254C3.94837 21.8943 1.80993 19.4763 0.757157 16.6305C-0.229815 14.015 -0.246264 11.0541 0.67491 8.42216C1.51384 6.02053 3.12589 3.89854 5.19853 2.41808C7.18893 0.954073 9.60701 0.148046 12.0744 0Z" fill="#3780FF"/>
<path d="M78.0371 0.85498H81.5573V24.3449C80.3894 24.3449 79.205 24.3614 78.0371 24.3285C78.0536 16.5149 78.0371 8.68496 78.0371 0.85498V0.85498Z" fill="#38B137"/>
<path d="M31.8304 8.99748C34.0017 8.58624 36.354 9.04683 38.147 10.3463C39.7755 11.4978 40.9106 13.3073 41.256 15.2812C41.7001 17.5677 41.1408 20.068 39.6604 21.8775C38.0648 23.9008 35.4493 24.9865 32.8996 24.822C30.5638 24.6904 28.2937 23.5224 26.9119 21.6143C25.3492 19.5087 24.9709 16.6136 25.8263 14.1462C26.6816 11.4978 29.0997 9.47452 31.8304 8.99748V8.99748ZM32.3239 12.1229C31.4356 12.3532 30.6131 12.8631 30.0209 13.5869C28.4253 15.4951 28.524 18.604 30.2841 20.3806C31.2875 21.4004 32.8009 21.8775 34.1991 21.5978C35.4986 21.3676 36.6337 20.4957 37.2587 19.3443C38.3444 17.3868 38.0319 14.689 36.3705 13.1592C35.3012 12.1722 33.7385 11.761 32.3239 12.1229Z" fill="#FA3913"/>
<path d="M49.2668 8.99723C51.7507 8.52019 54.4649 9.21107 56.3237 10.9547C59.3504 13.6689 59.6794 18.7518 57.0968 21.8772C55.5341 23.8512 53.0009 24.9368 50.5005 24.8217C48.1154 24.7559 45.7631 23.5715 44.3484 21.614C42.7528 19.4591 42.4074 16.4982 43.3121 13.9814C44.2168 11.4153 46.5856 9.45781 49.2668 8.99723V8.99723ZM49.7603 12.1226C48.872 12.3529 48.0496 12.8629 47.4574 13.5702C45.8782 15.4454 45.944 18.5051 47.6383 20.2981C48.6417 21.3673 50.2044 21.8937 51.652 21.5976C52.9351 21.3508 54.0865 20.4955 54.7116 19.344C55.7808 17.37 55.4683 14.6723 53.7904 13.1425C52.7212 12.1555 51.1585 11.7607 49.7603 12.1226Z" fill="#FCBD06"/>
<path d="M64.0553 9.95133C65.947 8.76696 68.4637 8.43797 70.5035 9.45784C71.145 9.73748 71.6714 10.2145 72.1813 10.6916C72.1978 10.2474 72.1813 9.78683 72.1978 9.32624C73.2999 9.34269 74.402 9.32624 75.5206 9.34269V23.8512C75.5041 26.039 74.9449 28.3584 73.3657 29.954C71.6385 31.7141 68.9901 32.2569 66.6049 31.8951C64.0553 31.5167 61.8346 29.6579 60.8476 27.3056C61.8346 26.8286 62.8709 26.4502 63.8908 26.0061C64.4665 27.355 65.6344 28.5064 67.0984 28.7696C68.5624 29.0328 70.2567 28.6709 71.2108 27.4537C72.2307 26.2035 72.2307 24.4928 72.1813 22.9629C71.4247 23.7032 70.5528 24.3612 69.5001 24.6079C67.2136 25.2494 64.6968 24.4599 62.9367 22.9136C61.1602 21.3673 60.1074 18.9821 60.2061 16.6134C60.2554 13.9321 61.7688 11.3495 64.0553 9.95133V9.95133ZM67.4603 12.0569C66.4569 12.2214 65.5193 12.7807 64.8777 13.5538C63.3315 15.3961 63.3315 18.3406 64.8942 20.1501C65.7825 21.2193 67.2136 21.8115 68.5953 21.6634C69.8948 21.5318 71.0957 20.7093 71.7372 19.5743C72.8229 17.6497 72.6419 15.0342 71.1779 13.3564C70.2732 12.3201 68.8256 11.8101 67.4603 12.0569V12.0569Z" fill="#3780FF"/>
<path d="M85.7851 10.7903C87.7591 8.94792 90.8023 8.32283 93.3355 9.29336C95.7371 10.1981 97.2669 12.4846 98.0401 14.8369C94.4705 16.3173 90.9174 17.7813 87.3478 19.2618C87.8413 20.1994 88.598 21.0548 89.6179 21.4002C91.049 21.9102 92.7598 21.7292 93.9606 20.7751C94.4376 20.4133 94.8159 19.9362 95.1778 19.4756C96.0826 20.0843 96.9873 20.6764 97.892 21.2851C96.609 23.2097 94.4541 24.5585 92.1347 24.7724C89.5685 25.0849 86.8379 24.098 85.1765 22.0911C82.4458 18.9328 82.709 13.636 85.7851 10.7903V10.7903ZM87.5452 13.8334C86.9859 14.6395 86.7556 15.6264 86.7721 16.597C89.1573 15.61 91.5425 14.623 93.9277 13.6196C93.5329 12.6984 92.5788 12.1391 91.6083 11.9911C90.0456 11.7114 88.4171 12.5504 87.5452 13.8334V13.8334Z" fill="#FA3913"/>
</svg>
