<svg width="1320" height="312" viewBox="0 0 1320 312" fill="none" xmlns="http://www.w3.org/2000/svg">
<mask id="mask0_518_487" style="mask-type:alpha" maskUnits="userSpaceOnUse" x="0" y="0" width="1320" height="312">
<rect width="1320" height="312" rx="8" fill="#242424"/>
</mask>
<g mask="url(#mask0_518_487)">
<g opacity="0.2">
<path d="M187.5 64C188.881 64 190 65.1193 190 66.5C190 67.8807 188.881 69 187.5 69C186.119 69 185 67.8807 185 66.5C185 65.1193 186.119 64 187.5 64Z" fill="white"/>
<path d="M187.5 85C188.881 85 190 86.1193 190 87.5C190 88.8807 188.881 90 187.5 90C186.119 90 185 88.8807 185 87.5C185 86.1193 186.119 85 187.5 85Z" fill="white"/>
<path d="M187.5 106C188.881 106 190 107.119 190 108.5C190 109.881 188.881 111 187.5 111C186.119 111 185 109.881 185 108.5C185 107.119 186.119 106 187.5 106Z" fill="white"/>
<path d="M187.5 127C188.881 127 190 128.119 190 129.5C190 130.881 188.881 132 187.5 132C186.119 132 185 130.881 185 129.5C185 128.119 186.119 127 187.5 127Z" fill="white"/>
<path d="M187.5 148C188.881 148 190 149.119 190 150.5C190 151.881 188.881 153 187.5 153C186.119 153 185 151.881 185 150.5C185 149.119 186.119 148 187.5 148Z" fill="white"/>
<path d="M187.5 169C188.881 169 190 170.119 190 171.5C190 172.881 188.881 174 187.5 174C186.119 174 185 172.881 185 171.5C185 170.119 186.119 169 187.5 169Z" fill="white"/>
<path d="M187.5 190C188.881 190 190 191.119 190 192.5C190 193.881 188.881 195 187.5 195C186.119 195 185 193.881 185 192.5C185 191.119 186.119 190 187.5 190Z" fill="white"/>
<path d="M187.5 211C188.881 211 190 212.119 190 213.5C190 214.881 188.881 216 187.5 216C186.119 216 185 214.881 185 213.5C185 212.119 186.119 211 187.5 211Z" fill="white"/>
<path d="M166.5 64C167.881 64 169 65.1193 169 66.5C169 67.8807 167.881 69 166.5 69C165.119 69 164 67.8807 164 66.5C164 65.1193 165.119 64 166.5 64Z" fill="white"/>
<path d="M166.5 85C167.881 85 169 86.1193 169 87.5C169 88.8807 167.881 90 166.5 90C165.119 90 164 88.8807 164 87.5C164 86.1193 165.119 85 166.5 85Z" fill="white"/>
<path d="M166.5 106C167.881 106 169 107.119 169 108.5C169 109.881 167.881 111 166.5 111C165.119 111 164 109.881 164 108.5C164 107.119 165.119 106 166.5 106Z" fill="white"/>
<path d="M166.5 127C167.881 127 169 128.119 169 129.5C169 130.881 167.881 132 166.5 132C165.119 132 164 130.881 164 129.5C164 128.119 165.119 127 166.5 127Z" fill="white"/>
<path d="M166.5 148C167.881 148 169 149.119 169 150.5C169 151.881 167.881 153 166.5 153C165.119 153 164 151.881 164 150.5C164 149.119 165.119 148 166.5 148Z" fill="white"/>
<path d="M166.5 169C167.881 169 169 170.119 169 171.5C169 172.881 167.881 174 166.5 174C165.119 174 164 172.881 164 171.5C164 170.119 165.119 169 166.5 169Z" fill="white"/>
<path d="M166.5 190C167.881 190 169 191.119 169 192.5C169 193.881 167.881 195 166.5 195C165.119 195 164 193.881 164 192.5C164 191.119 165.119 190 166.5 190Z" fill="white"/>
<path d="M166.5 211C167.881 211 169 212.119 169 213.5C169 214.881 167.881 216 166.5 216C165.119 216 164 214.881 164 213.5C164 212.119 165.119 211 166.5 211Z" fill="white"/>
<path d="M145.5 64C146.881 64 148 65.1193 148 66.5C148 67.8807 146.881 69 145.5 69C144.119 69 143 67.8807 143 66.5C143 65.1193 144.119 64 145.5 64Z" fill="white"/>
<path d="M145.5 85C146.881 85 148 86.1193 148 87.5C148 88.8807 146.881 90 145.5 90C144.119 90 143 88.8807 143 87.5C143 86.1193 144.119 85 145.5 85Z" fill="white"/>
<path d="M145.5 106C146.881 106 148 107.119 148 108.5C148 109.881 146.881 111 145.5 111C144.119 111 143 109.881 143 108.5C143 107.119 144.119 106 145.5 106Z" fill="white"/>
<path d="M145.5 127C146.881 127 148 128.119 148 129.5C148 130.881 146.881 132 145.5 132C144.119 132 143 130.881 143 129.5C143 128.119 144.119 127 145.5 127Z" fill="white"/>
<path d="M145.5 148C146.881 148 148 149.119 148 150.5C148 151.881 146.881 153 145.5 153C144.119 153 143 151.881 143 150.5C143 149.119 144.119 148 145.5 148Z" fill="white"/>
<path d="M145.5 169C146.881 169 148 170.119 148 171.5C148 172.881 146.881 174 145.5 174C144.119 174 143 172.881 143 171.5C143 170.119 144.119 169 145.5 169Z" fill="white"/>
<path d="M145.5 190C146.881 190 148 191.119 148 192.5C148 193.881 146.881 195 145.5 195C144.119 195 143 193.881 143 192.5C143 191.119 144.119 190 145.5 190Z" fill="white"/>
<path d="M145.5 211C146.881 211 148 212.119 148 213.5C148 214.881 146.881 216 145.5 216C144.119 216 143 214.881 143 213.5C143 212.119 144.119 211 145.5 211Z" fill="white"/>
<path d="M124.5 64C125.881 64 127 65.1193 127 66.5C127 67.8807 125.881 69 124.5 69C123.119 69 122 67.8807 122 66.5C122 65.1193 123.119 64 124.5 64Z" fill="white"/>
<path d="M124.5 85C125.881 85 127 86.1193 127 87.5C127 88.8807 125.881 90 124.5 90C123.119 90 122 88.8807 122 87.5C122 86.1193 123.119 85 124.5 85Z" fill="white"/>
<path d="M124.5 106C125.881 106 127 107.119 127 108.5C127 109.881 125.881 111 124.5 111C123.119 111 122 109.881 122 108.5C122 107.119 123.119 106 124.5 106Z" fill="white"/>
<path d="M124.5 127C125.881 127 127 128.119 127 129.5C127 130.881 125.881 132 124.5 132C123.119 132 122 130.881 122 129.5C122 128.119 123.119 127 124.5 127Z" fill="white"/>
<path d="M124.5 148C125.881 148 127 149.119 127 150.5C127 151.881 125.881 153 124.5 153C123.119 153 122 151.881 122 150.5C122 149.119 123.119 148 124.5 148Z" fill="white"/>
<path d="M124.5 169C125.881 169 127 170.119 127 171.5C127 172.881 125.881 174 124.5 174C123.119 174 122 172.881 122 171.5C122 170.119 123.119 169 124.5 169Z" fill="white"/>
<path d="M124.5 190C125.881 190 127 191.119 127 192.5C127 193.881 125.881 195 124.5 195C123.119 195 122 193.881 122 192.5C122 191.119 123.119 190 124.5 190Z" fill="white"/>
<path d="M124.5 211C125.881 211 127 212.119 127 213.5C127 214.881 125.881 216 124.5 216C123.119 216 122 214.881 122 213.5C122 212.119 123.119 211 124.5 211Z" fill="white"/>
</g>
<g opacity="0.2">
<path d="M1110 245.5C1110 246.881 1108.88 248 1107.5 248C1106.12 248 1105 246.881 1105 245.5C1105 244.119 1106.12 243 1107.5 243C1108.88 243 1110 244.119 1110 245.5Z" fill="#ED1CA6"/>
<path d="M1089 245.5C1089 246.881 1087.88 248 1086.5 248C1085.12 248 1084 246.881 1084 245.5C1084 244.119 1085.12 243 1086.5 243C1087.88 243 1089 244.119 1089 245.5Z" fill="#ED1CA6"/>
<path d="M1068 245.5C1068 246.881 1066.88 248 1065.5 248C1064.12 248 1063 246.881 1063 245.5C1063 244.119 1064.12 243 1065.5 243C1066.88 243 1068 244.119 1068 245.5Z" fill="#ED1CA6"/>
<path d="M1047 245.5C1047 246.881 1045.88 248 1044.5 248C1043.12 248 1042 246.881 1042 245.5C1042 244.119 1043.12 243 1044.5 243C1045.88 243 1047 244.119 1047 245.5Z" fill="#ED1CA6"/>
<path d="M1026 245.5C1026 246.881 1024.88 248 1023.5 248C1022.12 248 1021 246.881 1021 245.5C1021 244.119 1022.12 243 1023.5 243C1024.88 243 1026 244.119 1026 245.5Z" fill="#ED1CA6"/>
<path d="M1005 245.5C1005 246.881 1003.88 248 1002.5 248C1001.12 248 1000 246.881 1000 245.5C1000 244.119 1001.12 243 1002.5 243C1003.88 243 1005 244.119 1005 245.5Z" fill="#ED1CA6"/>
<path d="M984 245.5C984 246.881 982.881 248 981.5 248C980.119 248 979 246.881 979 245.5C979 244.119 980.119 243 981.5 243C982.881 243 984 244.119 984 245.5Z" fill="#ED1CA6"/>
<path d="M963 245.5C963 246.881 961.881 248 960.5 248C959.119 248 958 246.881 958 245.5C958 244.119 959.119 243 960.5 243C961.881 243 963 244.119 963 245.5Z" fill="#ED1CA6"/>
<path d="M1110 224.5C1110 225.881 1108.88 227 1107.5 227C1106.12 227 1105 225.881 1105 224.5C1105 223.119 1106.12 222 1107.5 222C1108.88 222 1110 223.119 1110 224.5Z" fill="#ED1CA6"/>
<path d="M1089 224.5C1089 225.881 1087.88 227 1086.5 227C1085.12 227 1084 225.881 1084 224.5C1084 223.119 1085.12 222 1086.5 222C1087.88 222 1089 223.119 1089 224.5Z" fill="#ED1CA6"/>
<path d="M1068 224.5C1068 225.881 1066.88 227 1065.5 227C1064.12 227 1063 225.881 1063 224.5C1063 223.119 1064.12 222 1065.5 222C1066.88 222 1068 223.119 1068 224.5Z" fill="#ED1CA6"/>
<path d="M1047 224.5C1047 225.881 1045.88 227 1044.5 227C1043.12 227 1042 225.881 1042 224.5C1042 223.119 1043.12 222 1044.5 222C1045.88 222 1047 223.119 1047 224.5Z" fill="#ED1CA6"/>
<path d="M1026 224.5C1026 225.881 1024.88 227 1023.5 227C1022.12 227 1021 225.881 1021 224.5C1021 223.119 1022.12 222 1023.5 222C1024.88 222 1026 223.119 1026 224.5Z" fill="#ED1CA6"/>
<path d="M1005 224.5C1005 225.881 1003.88 227 1002.5 227C1001.12 227 1000 225.881 1000 224.5C1000 223.119 1001.12 222 1002.5 222C1003.88 222 1005 223.119 1005 224.5Z" fill="#ED1CA6"/>
<path d="M984 224.5C984 225.881 982.881 227 981.5 227C980.119 227 979 225.881 979 224.5C979 223.119 980.119 222 981.5 222C982.881 222 984 223.119 984 224.5Z" fill="#ED1CA6"/>
<path d="M963 224.5C963 225.881 961.881 227 960.5 227C959.119 227 958 225.881 958 224.5C958 223.119 959.119 222 960.5 222C961.881 222 963 223.119 963 224.5Z" fill="#ED1CA6"/>
<path d="M1110 203.5C1110 204.881 1108.88 206 1107.5 206C1106.12 206 1105 204.881 1105 203.5C1105 202.119 1106.12 201 1107.5 201C1108.88 201 1110 202.119 1110 203.5Z" fill="#ED1CA6"/>
<path d="M1089 203.5C1089 204.881 1087.88 206 1086.5 206C1085.12 206 1084 204.881 1084 203.5C1084 202.119 1085.12 201 1086.5 201C1087.88 201 1089 202.119 1089 203.5Z" fill="#ED1CA6"/>
<path d="M1068 203.5C1068 204.881 1066.88 206 1065.5 206C1064.12 206 1063 204.881 1063 203.5C1063 202.119 1064.12 201 1065.5 201C1066.88 201 1068 202.119 1068 203.5Z" fill="#ED1CA6"/>
<path d="M1047 203.5C1047 204.881 1045.88 206 1044.5 206C1043.12 206 1042 204.881 1042 203.5C1042 202.119 1043.12 201 1044.5 201C1045.88 201 1047 202.119 1047 203.5Z" fill="#ED1CA6"/>
<path d="M1026 203.5C1026 204.881 1024.88 206 1023.5 206C1022.12 206 1021 204.881 1021 203.5C1021 202.119 1022.12 201 1023.5 201C1024.88 201 1026 202.119 1026 203.5Z" fill="#ED1CA6"/>
<path d="M1005 203.5C1005 204.881 1003.88 206 1002.5 206C1001.12 206 1000 204.881 1000 203.5C1000 202.119 1001.12 201 1002.5 201C1003.88 201 1005 202.119 1005 203.5Z" fill="#ED1CA6"/>
<path d="M984 203.5C984 204.881 982.881 206 981.5 206C980.119 206 979 204.881 979 203.5C979 202.119 980.119 201 981.5 201C982.881 201 984 202.119 984 203.5Z" fill="#ED1CA6"/>
<path d="M963 203.5C963 204.881 961.881 206 960.5 206C959.119 206 958 204.881 958 203.5C958 202.119 959.119 201 960.5 201C961.881 201 963 202.119 963 203.5Z" fill="#ED1CA6"/>
<path d="M1110 182.5C1110 183.881 1108.88 185 1107.5 185C1106.12 185 1105 183.881 1105 182.5C1105 181.119 1106.12 180 1107.5 180C1108.88 180 1110 181.119 1110 182.5Z" fill="#ED1CA6"/>
<path d="M1089 182.5C1089 183.881 1087.88 185 1086.5 185C1085.12 185 1084 183.881 1084 182.5C1084 181.119 1085.12 180 1086.5 180C1087.88 180 1089 181.119 1089 182.5Z" fill="#ED1CA6"/>
<path d="M1068 182.5C1068 183.881 1066.88 185 1065.5 185C1064.12 185 1063 183.881 1063 182.5C1063 181.119 1064.12 180 1065.5 180C1066.88 180 1068 181.119 1068 182.5Z" fill="#ED1CA6"/>
<path d="M1047 182.5C1047 183.881 1045.88 185 1044.5 185C1043.12 185 1042 183.881 1042 182.5C1042 181.119 1043.12 180 1044.5 180C1045.88 180 1047 181.119 1047 182.5Z" fill="#ED1CA6"/>
<path d="M1026 182.5C1026 183.881 1024.88 185 1023.5 185C1022.12 185 1021 183.881 1021 182.5C1021 181.119 1022.12 180 1023.5 180C1024.88 180 1026 181.119 1026 182.5Z" fill="#ED1CA6"/>
<path d="M1005 182.5C1005 183.881 1003.88 185 1002.5 185C1001.12 185 1000 183.881 1000 182.5C1000 181.119 1001.12 180 1002.5 180C1003.88 180 1005 181.119 1005 182.5Z" fill="#ED1CA6"/>
<path d="M984 182.5C984 183.881 982.881 185 981.5 185C980.119 185 979 183.881 979 182.5C979 181.119 980.119 180 981.5 180C982.881 180 984 181.119 984 182.5Z" fill="#ED1CA6"/>
<path d="M963 182.5C963 183.881 961.881 185 960.5 185C959.119 185 958 183.881 958 182.5C958 181.119 959.119 180 960.5 180C961.881 180 963 181.119 963 182.5Z" fill="#ED1CA6"/>
</g>
<circle opacity="0.03" cx="148.5" cy="403.5" r="264.5" fill="white"/>
<circle opacity="0.03" cx="1170" cy="64" r="38" fill="white"/>
</g>
</svg>
