<svg width="114" height="26" viewBox="0 0 114 26" fill="none" xmlns="http://www.w3.org/2000/svg">
<path fill-rule="evenodd" clip-rule="evenodd" d="M38.2845 16.9422L38.2625 16.6522H35.8264L35.84 16.9784C35.9898 20.6071 38.4541 23.0115 42.8362 23.0115C47.016 23.0115 49.8585 20.8552 49.8585 17.5911C49.8585 15.8265 49.2418 14.5773 48.0668 13.725C47.1624 13.0688 46.0823 12.6985 44.29 12.3131L43.896 12.2294L43.5055 12.148C40.2498 11.4715 39.2177 10.8819 39.2177 9.12976C39.2177 7.31711 40.7099 6.16294 43.2138 6.16294C45.6499 6.16294 47.189 7.63985 47.2608 9.96515L47.2704 10.2687H49.6889L49.6816 9.94876C49.5974 6.32402 47.1483 3.88454 43.1895 3.88454C39.3093 3.88454 36.7472 6.20307 36.7472 9.20437C36.7472 10.9645 37.3632 12.1898 38.54 13.0083C39.4365 13.6323 40.4753 13.9635 42.3078 14.3309C42.4949 14.3686 42.6822 14.4055 42.8696 14.4417C44.6031 14.7819 45.3678 14.9922 46.0659 15.3952C46.9324 15.8954 47.3619 16.6098 47.3619 17.7165C47.3619 19.6383 45.7352 20.7331 42.8865 20.7331C40.1599 20.7331 38.4677 19.3755 38.2845 16.9422ZM54.9494 3.60024V3.28711H52.5455V22.7125H54.9494V19.0471L57.4805 16.5805L61.9999 22.5876L62.0938 22.7119H65.0843L64.7028 22.2095L59.1835 14.9334L64.2738 9.86341L64.8108 9.32759H61.5438L61.4517 9.42028L54.9494 15.974V3.60024ZM77.5807 16.819H77.8775L77.8961 16.5239C77.906 16.3647 77.9136 16.2053 77.9187 16.0458C77.921 15.9644 77.9221 15.8903 77.9221 15.8248C77.9221 11.875 75.2967 8.96528 71.417 8.96528C67.5447 8.96528 64.7859 12.0627 64.7859 15.9757C64.7859 20.0023 67.4198 23.0115 71.4425 23.0115C74.4839 23.0115 76.8341 21.213 77.6808 18.4852L77.8074 18.0777H75.2865L75.2119 18.2868C74.6806 19.7802 73.241 20.771 71.4673 20.771C69.1499 20.771 67.5334 19.1844 67.2423 16.819H77.5813H77.5807ZM67.1739 14.9425C67.5798 12.7867 69.1279 11.3562 71.2356 11.3562C73.4077 11.3562 74.9072 12.7398 75.2351 14.9425H67.1745H67.1739ZM85.6701 11.4313H85.9827V9.30498H83.0532V5.67798H80.6493V9.30498H78.2205V11.4313H80.6493V18.9227C80.6493 21.3803 81.9255 22.7125 84.2678 22.7125C84.6765 22.7125 85.0291 22.6882 85.3248 22.6469C85.5079 22.6215 85.6339 22.5949 85.7035 22.5757L85.9329 22.5124V20.286L85.5531 20.368C85.4417 20.3905 85.3298 20.4101 85.2174 20.4268C84.9777 20.4631 84.7357 20.483 84.4933 20.4861C83.4669 20.4861 83.0532 20.0045 83.0532 18.7978V11.4313H85.6701ZM93.1264 23.0115C96.4279 23.0115 98.7588 20.8948 99.3444 17.8997L99.4179 17.5238H97.0118L96.9507 17.7578C96.4494 19.6688 95.0883 20.7704 93.1264 20.7704C90.6791 20.7704 88.9902 18.8148 88.9902 16.0011C88.9902 13.1654 90.6757 11.2058 93.1264 11.2058C95.0883 11.2058 96.4494 12.308 96.9507 14.219L97.0118 14.453H99.4179L99.3444 14.0771C98.7588 11.0815 96.4279 8.96528 93.1264 8.96528C89.2915 8.96528 86.5801 12.0847 86.5801 16.0011C86.5801 19.8955 89.2954 23.0115 93.1264 23.0115ZM103.906 3.59967V3.28711H101.507V22.7125H103.906V14.8543C103.906 12.5561 105.301 11.2075 107.417 11.2075C109.439 11.2075 110.454 12.3815 110.454 14.6039V22.7125H112.853V14.2523C112.853 11.1125 110.914 9.02633 107.718 9.02633C106.073 9.02633 104.751 9.63111 103.906 10.4982V3.60024V3.59967Z" fill="#242424"/>
<path fill-rule="evenodd" clip-rule="evenodd" d="M6.253 0.84613L14.33 0L22.4075 0.84613L28.661 9.16443L14.3305 25.701L0 9.16443L6.253 0.84613Z" fill="#FDB300"/>
<path fill-rule="evenodd" clip-rule="evenodd" d="M5.80478 9.2644L14.3305 25.7009L0 9.2644H5.80478Z" fill="#EA6C00"/>
<path fill-rule="evenodd" clip-rule="evenodd" d="M22.8579 9.2644L14.3316 25.7009L28.6621 9.2644H22.8579Z" fill="#EA6C00"/>
<path fill-rule="evenodd" clip-rule="evenodd" d="M5.6748 9.2644H22.6923L14.1836 25.7009L5.6748 9.2644Z" fill="#FDAD00"/>
<path fill-rule="evenodd" clip-rule="evenodd" d="M14.0344 0L6.11454 0.855174L5.6748 9.26448L14.0344 0Z" fill="#FDD231"/>
<path fill-rule="evenodd" clip-rule="evenodd" d="M14.3282 0L22.248 0.855174L22.6877 9.26448L14.3282 0Z" fill="#FDD231"/>
<path fill-rule="evenodd" clip-rule="evenodd" d="M28.6621 9.26453L22.3921 0.896484L22.8421 9.26453H28.6621Z" fill="#FDAD00"/>
<path fill-rule="evenodd" clip-rule="evenodd" d="M0 9.26428L6.26939 0.89624L5.81948 9.26428H0Z" fill="#FDAD00"/>
<path fill-rule="evenodd" clip-rule="evenodd" d="M14.1836 0L5.6748 9.26448H22.6923L14.1836 0Z" fill="#FEEEB7"/>
</svg>
