<svg width="119" height="27" viewBox="0 0 119 27" fill="none" xmlns="http://www.w3.org/2000/svg">
<path d="M20.6297 25.9761L12.9162 25.835C10.4187 25.7859 7.91503 25.8841 5.4666 25.3748C1.7418 24.6138 1.47793 20.8829 1.20179 17.7533C0.821333 13.3535 0.968607 8.87394 1.68657 4.51095C2.09157 2.06252 3.68704 0.602048 6.15388 0.442501C14.481 -0.134322 22.8633 -0.0668214 31.1721 0.203181C32.0496 0.227727 32.9332 0.362728 33.7984 0.516138C38.0694 1.26478 38.1737 5.49277 38.4498 9.05189C38.726 12.6478 38.6094 16.2622 38.0817 19.8336C37.6582 22.7913 36.8482 25.2704 33.4303 25.5098C29.147 25.8227 24.962 26.0743 20.6665 25.9945C20.6665 25.9761 20.642 25.9761 20.6297 25.9761V25.9761ZM16.0949 18.4897C19.3226 16.6365 22.489 14.814 25.6984 12.9731C22.4645 11.1199 19.3042 9.29735 16.0949 7.45643V18.4897Z" fill="#FF0000"/>
<path d="M100.52 22.6125C100.373 23.2139 100.244 23.6864 100.115 24.1896H97.0959V0.901855H100.618V9.49284C100.802 9.25966 100.894 9.16147 100.974 9.05715C101.575 8.22874 102.355 7.68873 103.361 7.4801C104.963 7.16714 106.331 7.87283 106.816 9.41307C107.129 10.3703 107.331 11.3951 107.356 12.3954C107.405 14.9665 107.368 17.5315 107.276 20.1027C107.239 20.8882 107 21.692 106.699 22.4284C105.711 24.8584 102.484 25.2266 100.882 23.1218C100.784 22.993 100.692 22.8518 100.52 22.6125V22.6125ZM100.692 16.2061V20.4648C100.692 21.1582 101.06 21.5816 101.753 21.7411C102.435 21.9007 102.987 21.6368 103.263 21.0048C103.38 20.7409 103.496 20.4648 103.502 20.1886C103.57 17.5868 103.631 14.9849 103.65 12.377C103.65 11.8922 103.533 11.389 103.386 10.9165C103.11 10.0635 102.349 9.81193 101.6 10.309C101.035 10.6894 100.692 11.2294 100.692 11.9474V16.2061ZM91.119 7.81146H94.807V24.2018H91.929C91.8247 23.5821 91.7204 22.9439 91.5977 22.1952C91.4013 22.4836 91.2847 22.6677 91.162 22.8518C90.2047 24.2325 88.8486 24.705 87.247 24.4534C85.8785 24.2325 85.0563 23.177 84.8722 21.4466C84.8169 20.9311 84.7924 20.4095 84.7924 19.8941C84.7801 16.0588 84.7924 12.2113 84.7924 8.37601V7.79919H88.5233V8.46806C88.5233 12.1745 88.5111 15.8747 88.5356 19.5811C88.5356 20.1088 88.5908 20.655 88.6829 21.1827C88.7872 21.7227 89.1799 21.9191 89.7077 21.8823C90.5606 21.8148 91.1497 21.1827 91.1497 20.3359V8.53556C91.119 8.29624 91.119 8.07533 91.119 7.81146V7.81146ZM65.7266 7.79919H69.433V8.4926C69.433 12.1806 69.4207 15.8624 69.4452 19.5382C69.4452 20.0659 69.4943 20.612 69.6048 21.1275C69.7459 21.735 70.1018 21.9314 70.7093 21.8516C71.55 21.735 72.0593 21.152 72.0655 20.2991V8.5601V7.82373H75.7535V24.2018H72.8878C72.7834 23.5943 72.6791 22.9684 72.5441 22.1768C72.36 22.453 72.2557 22.6125 72.1514 22.7782C71.1941 24.1834 69.8502 24.6989 68.2118 24.4473C66.8986 24.2509 66.0947 23.2814 65.8493 21.692C65.7818 21.195 65.7327 20.7041 65.7327 20.207C65.7204 16.2245 65.7204 12.2235 65.7204 8.24101L65.7266 7.79919ZM63.8243 16.5497C63.812 17.102 63.7752 17.6543 63.7445 18.2066C63.6034 19.8634 63.5359 22.2136 62.1981 23.4225C61.3452 24.1834 60.2652 24.4596 59.1483 24.4964C58.6513 24.5087 58.1481 24.5087 57.651 24.4412C55.3008 24.0852 54.2085 23.0482 53.8158 20.4648C53.3678 17.4825 53.331 14.4511 53.8649 11.4688C54.4172 8.38215 56.3194 7.28987 59.2772 7.49237C62.0386 7.68873 63.272 9.49898 63.5972 12.0763C63.7752 13.5551 63.8611 15.0524 63.8243 16.5497V16.5497ZM60.0688 15.9852C60.0688 14.9358 60.0933 13.8804 60.0565 12.8311C60.032 12.2235 59.9522 11.6099 59.8233 11.0085C59.6761 10.3151 59.2342 9.98375 58.682 9.99603C58.142 10.0083 57.7615 10.3397 57.5651 10.984C57.4976 11.2233 57.424 11.4688 57.424 11.7081C57.424 13.3526 57.4117 15.0033 57.3994 16.6479C57.3872 18.182 57.1908 19.7897 57.6756 21.2564C57.8229 21.7043 58.2033 21.9498 58.7004 21.9498C59.1851 21.9498 59.5042 21.7104 59.6822 21.2809C59.8233 20.9495 59.9461 20.5875 59.9461 20.2316C59.989 18.8202 60.0688 17.4027 60.0688 15.9852ZM48.4035 12.8986C48.7287 11.3092 49.0355 9.75671 49.373 8.19806C49.7964 6.21599 50.2689 4.23393 50.6862 2.24573C50.7905 1.76095 50.9869 1.64436 51.4471 1.65663C52.4351 1.69345 53.4415 1.66891 54.4969 1.66891C54.1533 2.93301 53.8158 4.13575 53.4844 5.32008C52.4351 9.03874 51.3858 12.7697 50.3487 16.5006C50.2689 16.789 50.2321 17.102 50.2321 17.4088C50.2198 19.4461 50.2321 21.4773 50.2321 23.5146V24.1773H46.63C46.6178 23.9932 46.5932 23.8091 46.5932 23.625C46.5932 22.4714 46.5012 21.3116 46.6055 20.1702C46.8694 17.4272 45.998 14.9052 45.2923 12.3524C44.3596 8.97738 43.4146 5.59008 42.4818 2.21505C42.4327 2.0555 42.4143 1.88368 42.3652 1.68732H46.0409C46.8141 5.41212 47.5935 9.13693 48.4035 12.8986ZM118.88 17.1756H112.67C112.738 18.4213 112.762 19.6057 112.891 20.7777C112.983 21.5939 113.431 21.9436 114.137 21.9498C114.873 21.962 115.303 21.5939 115.474 20.7838C115.53 20.52 115.567 20.2561 115.591 19.9861C115.616 19.7468 115.628 19.4891 115.646 19.1454C116.696 19.2007 117.72 19.262 118.733 19.305C119.322 21.0538 118.26 23.2998 116.475 23.9932C115.069 24.5455 113.627 24.5455 112.191 24.1221C111.13 23.8091 110.338 23.1341 109.982 22.097C109.651 21.1275 109.338 20.115 109.271 19.1025C109.086 16.6049 109.019 14.0829 109.399 11.5792C109.467 11.1619 109.584 10.7631 109.712 10.3581C110.228 8.68897 111.351 7.66419 113.087 7.49237C114.032 7.40032 115.008 7.43714 115.941 7.59669C117.45 7.86055 118.254 8.9467 118.604 10.3703C118.764 11.0392 118.88 11.7265 118.905 12.4076C118.911 13.9724 118.88 15.5249 118.88 17.1756ZM115.352 15.0218C115.352 13.7883 115.364 12.6285 115.339 11.4626C115.339 11.1865 115.235 10.8981 115.131 10.6342C114.922 10.1188 114.486 9.97762 113.965 9.97762C113.443 9.97762 113.112 10.2415 112.983 10.714C112.59 12.1315 112.719 13.5797 112.731 15.034C113.67 15.0218 114.523 15.0218 115.352 15.0218V15.0218Z" fill="#282828"/>
<path d="M78.6009 4.67577H74.9497V1.71802H85.848V4.65736H82.2214V24.1773H78.607L78.6009 4.67577Z" fill="#282828"/>
</svg>
