<svg width="70" height="62" viewBox="0 0 70 62" fill="none" xmlns="http://www.w3.org/2000/svg">
<path d="M56.2242 4H13.7758C9.10776 4 7.44159 4.5442 5.74214 5.43875C3.89685 6.41006 2.44866 7.83542 1.46179 9.65162C0.552917 11.3243 0 12.9642 0 17.5587V44.4413C0 49.0358 0.552917 50.6757 1.46179 52.3484C2.44866 54.1646 3.89685 55.5899 5.74214 56.5613C7.44159 57.4558 9.10776 58 13.7758 58H56.2242C60.8922 58 62.5584 57.4558 64.2579 56.5613C66.1031 55.5899 67.5513 54.1646 68.5382 52.3484C69.4471 50.6757 70 49.0358 70 44.4413V17.5587C70 12.9642 69.4471 11.3243 68.5382 9.65162C67.5513 7.83542 66.1031 6.41006 64.2579 5.43875C62.5584 4.5442 60.8922 4 56.2242 4Z" fill="#78C800"/>
<path fill-rule="evenodd" clip-rule="evenodd" d="M8.11158 29.3786L35.8217 9.18247C36.5237 8.67083 37.4757 8.67082 38.1777 9.18247L65.8878 29.3786C66.7804 30.0292 66.9767 31.2803 66.3261 32.1729C66.2025 32.3425 66.0529 32.4916 65.883 32.6147L38.1728 52.6841C37.4729 53.191 36.5265 53.191 35.8265 52.6841L8.11642 32.6147C7.22184 31.9668 7.02187 30.7163 7.66979 29.8218C7.79289 29.6518 7.94198 29.5023 8.11158 29.3786Z" fill="#FFC800"/>
<path d="M37 43C43.6274 43 49 37.6274 49 31C49 24.3726 43.6274 19 37 19C30.3726 19 25 24.3726 25 31C25 37.6274 30.3726 43 37 43Z" fill="#1CB0F6"/>
<path fill-rule="evenodd" clip-rule="evenodd" d="M25.0254 30.2097C25.1257 28.6673 25.5174 27.2043 26.146 25.8752L48.9865 31.57C48.9142 33.116 48.5493 34.5856 47.946 35.9245L25.0254 30.2097Z" fill="white"/>
</svg>
