<svg width="70" height="54" viewBox="0 0 70 54" fill="none" xmlns="http://www.w3.org/2000/svg">
<path fill-rule="evenodd" clip-rule="evenodd" d="M56.2242 0H13.7758C9.10776 0 7.44159 0.544201 5.74214 1.43875C3.89685 2.41006 2.44866 3.83542 1.46179 5.65162C0.552917 7.32428 0 8.96419 0 13.5587V40.4413C0 45.0358 0.552917 46.6757 1.46179 48.3484C2.44866 50.1646 3.89685 51.5899 5.74214 52.5613C7.44159 53.4558 9.10776 54 13.7758 54H56.2242C60.8922 54 62.5584 53.4558 64.2579 52.5613C66.1031 51.5899 67.5513 50.1646 68.5382 48.3484C69.4471 46.6757 70 45.0358 70 40.4413V13.5587C70 8.96419 69.4471 7.32428 68.5382 5.65162C67.5513 3.83542 66.1031 2.41006 64.2579 1.43875C62.5584 0.544201 60.8922 0 56.2242 0Z" fill="#EEEEEE"/>
<path fill-rule="evenodd" clip-rule="evenodd" d="M12.563 0H57.437C61.8054 0 63.3895 0.454846 64.9865 1.30895C66.5836 2.16306 67.8369 3.41642 68.691 5.01346C68.8631 5.3352 69.019 5.65643 69.1582 6H0.841797C0.981005 5.65643 1.13687 5.3352 1.30895 5.01346C2.16305 3.41642 3.41641 2.16306 5.01345 1.30895C6.61049 0.454846 8.19459 0 12.563 0Z" fill="#FF4B4B"/>
<path fill-rule="evenodd" clip-rule="evenodd" d="M69.9973 12C69.9991 12.1824 70 12.37 70 12.563V18H0V12.563C0 12.37 0.000888148 12.1824 0.00265965 12H69.9973Z" fill="#FF4B4B"/>
<path fill-rule="evenodd" clip-rule="evenodd" d="M70 24V30H0L0 24H70Z" fill="#FF4B4B"/>
<path fill-rule="evenodd" clip-rule="evenodd" d="M70 41.437C70 41.63 69.9991 41.8176 69.9973 42H0.00265965C0.000888148 41.8176 0 41.63 0 41.437V36H70V41.437Z" fill="#FF4B4B"/>
<path fill-rule="evenodd" clip-rule="evenodd" d="M69.1582 48C69.019 48.3436 68.8631 48.6648 68.691 48.9865C67.8369 50.5836 66.5836 51.8369 64.9865 52.6911C63.3895 53.5452 61.8054 54 57.437 54H12.563C8.19459 54 6.61049 53.5452 5.01345 52.6911C3.41641 51.8369 2.16305 50.5836 1.30895 48.9865C1.13687 48.6648 0.981005 48.3436 0.841797 48H69.1582Z" fill="#FF4B4B"/>
<path fill-rule="evenodd" clip-rule="evenodd" d="M12.563 0H35V24H0V12.563C0 8.1946 0.454846 6.61049 1.30895 5.01346C2.16306 3.41642 3.41642 2.16306 5.01346 1.30895C6.61049 0.454846 8.1946 0 12.563 0Z" fill="#1CB0F6"/>
<path d="M27.8065 9.60198L26.531 10.2726C26.1304 10.4832 25.635 10.3292 25.4245 9.92863C25.3406 9.76914 25.3117 9.58645 25.3421 9.40886L25.5857 7.98849C25.6089 7.85332 25.5641 7.71541 25.4659 7.61968L24.434 6.61377C24.1099 6.29791 24.1033 5.77918 24.4191 5.45514C24.5449 5.32611 24.7097 5.24214 24.888 5.21623L26.3142 5.009C26.4499 4.98928 26.5672 4.90404 26.6279 4.78107L27.2657 3.48877C27.466 3.08299 27.9572 2.91639 28.363 3.11665C28.5246 3.1964 28.6554 3.32719 28.7351 3.48877L29.3729 4.78107C29.4336 4.90404 29.5509 4.98928 29.6867 5.009L31.1128 5.21623C31.5606 5.2813 31.8709 5.69707 31.8058 6.14487C31.7799 6.32319 31.6959 6.488 31.5669 6.61377L30.5349 7.61968C30.4367 7.71541 30.3919 7.85332 30.4151 7.98849L30.6587 9.40886C30.7352 9.85485 30.4357 10.2784 29.9897 10.3549C29.8121 10.3854 29.6294 10.3564 29.4699 10.2726L28.1943 9.60198C28.0729 9.53816 27.9279 9.53816 27.8065 9.60198Z" fill="white"/>
<path d="M27.8065 19.602L26.531 20.2726C26.1304 20.4832 25.635 20.3292 25.4245 19.9286C25.3406 19.7691 25.3117 19.5865 25.3421 19.4089L25.5857 17.9885C25.6089 17.8533 25.5641 17.7154 25.4659 17.6197L24.434 16.6138C24.1099 16.2979 24.1033 15.7792 24.4191 15.4551C24.5449 15.3261 24.7097 15.2421 24.888 15.2162L26.3142 15.009C26.4499 14.9893 26.5672 14.904 26.6279 14.7811L27.2657 13.4888C27.466 13.083 27.9572 12.9164 28.363 13.1167C28.5246 13.1964 28.6554 13.3272 28.7351 13.4888L29.3729 14.7811C29.4336 14.904 29.5509 14.9893 29.6867 15.009L31.1128 15.2162C31.5606 15.2813 31.8709 15.6971 31.8058 16.1449C31.7799 16.3232 31.6959 16.488 31.5669 16.6138L30.5349 17.6197C30.4367 17.7154 30.3919 17.8533 30.4151 17.9885L30.6587 19.4089C30.7352 19.8549 30.4357 20.2784 29.9897 20.3549C29.8121 20.3854 29.6294 20.3564 29.4699 20.2726L28.1943 19.602C28.0729 19.5382 27.9279 19.5382 27.8065 19.602Z" fill="white"/>
<path d="M17.8065 9.60198L16.531 10.2726C16.1304 10.4832 15.635 10.3292 15.4245 9.92863C15.3406 9.76914 15.3117 9.58645 15.3421 9.40886L15.5857 7.98849C15.6089 7.85332 15.5641 7.71541 15.4659 7.61968L14.434 6.61377C14.1099 6.29791 14.1033 5.77918 14.4191 5.45514C14.5449 5.32611 14.7097 5.24214 14.888 5.21623L16.3142 5.009C16.4499 4.98928 16.5672 4.90404 16.6279 4.78107L17.2657 3.48877C17.4659 3.08299 17.9572 2.91639 18.363 3.11665C18.5246 3.1964 18.6554 3.32719 18.7351 3.48877L19.3729 4.78107C19.4336 4.90404 19.5509 4.98928 19.6867 5.009L21.1128 5.21623C21.5606 5.2813 21.8709 5.69707 21.8058 6.14487C21.7799 6.32319 21.6959 6.488 21.5669 6.61377L20.5349 7.61968C20.4367 7.71541 20.3919 7.85332 20.4151 7.98849L20.6587 9.40886C20.7352 9.85485 20.4357 10.2784 19.9897 10.3549C19.8121 10.3854 19.6294 10.3564 19.4699 10.2726L18.1943 9.60198C18.0729 9.53816 17.9279 9.53816 17.8065 9.60198Z" fill="white"/>
<path d="M17.8065 19.602L16.531 20.2726C16.1304 20.4832 15.635 20.3292 15.4245 19.9286C15.3406 19.7691 15.3117 19.5865 15.3421 19.4089L15.5857 17.9885C15.6089 17.8533 15.5641 17.7154 15.4659 17.6197L14.434 16.6138C14.1099 16.2979 14.1033 15.7792 14.4191 15.4551C14.5449 15.3261 14.7097 15.2421 14.888 15.2162L16.3142 15.009C16.4499 14.9893 16.5672 14.904 16.6279 14.7811L17.2657 13.4888C17.4659 13.083 17.9572 12.9164 18.363 13.1167C18.5246 13.1964 18.6554 13.3272 18.7351 13.4888L19.3729 14.7811C19.4336 14.904 19.5509 14.9893 19.6867 15.009L21.1128 15.2162C21.5606 15.2813 21.8709 15.6971 21.8058 16.1449C21.7799 16.3232 21.6959 16.488 21.5669 16.6138L20.5349 17.6197C20.4367 17.7154 20.3919 17.8533 20.4151 17.9885L20.6587 19.4089C20.7352 19.8549 20.4357 20.2784 19.9897 20.3549C19.8121 20.3854 19.6294 20.3564 19.4699 20.2726L18.1943 19.602C18.0729 19.5382 17.9279 19.5382 17.8065 19.602Z" fill="white"/>
<path d="M7.80652 9.60198L6.53095 10.2726C6.13042 10.4832 5.63503 10.3292 5.42446 9.92863C5.34061 9.76914 5.31167 9.58645 5.34213 9.40886L5.58575 7.98849C5.60893 7.85332 5.56412 7.71541 5.46591 7.61968L4.43395 6.61377C4.10992 6.29791 4.10329 5.77918 4.41915 5.45514C4.54492 5.32611 4.70973 5.24214 4.88804 5.21623L6.31418 5.009C6.44989 4.98928 6.56721 4.90404 6.6279 4.78107L7.26569 3.48877C7.46595 3.08299 7.95725 2.91639 8.36303 3.11665C8.52461 3.1964 8.6554 3.32719 8.73515 3.48877L9.37293 4.78107C9.43363 4.90404 9.55095 4.98928 9.68666 5.009L11.1128 5.21623C11.5606 5.2813 11.8709 5.69707 11.8058 6.14487C11.7799 6.32319 11.6959 6.488 11.5669 6.61377L10.5349 7.61968C10.4367 7.71541 10.3919 7.85332 10.4151 7.98849L10.6587 9.40886C10.7352 9.85485 10.4357 10.2784 9.98966 10.3549C9.81206 10.3854 9.62937 10.3564 9.46988 10.2726L8.19431 9.60198C8.07292 9.53816 7.92791 9.53816 7.80652 9.60198Z" fill="white"/>
<path d="M7.80652 19.602L6.53095 20.2726C6.13042 20.4832 5.63503 20.3292 5.42446 19.9286C5.34061 19.7691 5.31167 19.5865 5.34213 19.4089L5.58575 17.9885C5.60893 17.8533 5.56412 17.7154 5.46591 17.6197L4.43395 16.6138C4.10992 16.2979 4.10329 15.7792 4.41915 15.4551C4.54492 15.3261 4.70973 15.2421 4.88804 15.2162L6.31418 15.009C6.44989 14.9893 6.56721 14.904 6.6279 14.7811L7.26569 13.4888C7.46595 13.083 7.95725 12.9164 8.36303 13.1167C8.52461 13.1964 8.6554 13.3272 8.73515 13.4888L9.37293 14.7811C9.43363 14.904 9.55095 14.9893 9.68666 15.009L11.1128 15.2162C11.5606 15.2813 11.8709 15.6971 11.8058 16.1449C11.7799 16.3232 11.6959 16.488 11.5669 16.6138L10.5349 17.6197C10.4367 17.7154 10.3919 17.8533 10.4151 17.9885L10.6587 19.4089C10.7352 19.8549 10.4357 20.2784 9.98966 20.3549C9.81206 20.3854 9.62937 20.3564 9.46988 20.2726L8.19431 19.602C8.07292 19.5382 7.92791 19.5382 7.80652 19.602Z" fill="white"/>
</svg>
